<svg width="56" height="56" viewBox="0 0 56 56" fill="none" xmlns="http://www.w3.org/2000/svg">
<circle cx="28" cy="28.167" r="24.5" stroke="#414141" stroke-opacity="0.2" stroke-width="6"/>
<mask id="path-2-inside-1_1_215" fill="white">
<path d="M41.8571 7.94867C42.7903 6.58712 42.4493 4.71083 40.9946 3.93085C38.2841 2.4776 35.3427 1.4859 32.291 1.00382C28.2527 0.365898 24.123 0.636405 20.2024 1.79566C16.2818 2.95491 12.6691 4.97373 9.62706 7.7052C6.58505 10.4367 4.19035 13.812 2.61724 17.5856C1.04413 21.3592 0.332205 25.4361 0.53328 29.5195C0.734354 33.6029 1.84337 37.5901 3.7796 41.1909C5.71584 44.7917 8.43058 47.9155 11.7262 50.3349C14.2167 52.1632 16.9916 53.5545 19.9317 54.4568C21.5097 54.9411 23.0825 53.8626 23.3928 52.2413C23.703 50.6201 22.6301 49.0741 21.0674 48.5424C18.9953 47.8374 17.0373 46.8185 15.2636 45.5163C12.6843 43.6229 10.5596 41.1781 9.04426 38.36C7.52889 35.5419 6.66094 32.4213 6.50357 29.2255C6.3462 26.0297 6.90338 22.839 8.13455 19.8856C9.36572 16.9323 11.2399 14.2906 13.6207 12.1529C16.0015 10.0151 18.8289 8.43512 21.8973 7.52785C24.9657 6.62057 28.1978 6.40887 31.3583 6.90813C33.5317 7.25147 35.6337 7.92508 37.5929 8.90063C39.0706 9.63635 40.924 9.31023 41.8571 7.94867Z"/>
</mask>
<path d="M41.8571 7.94867C42.7903 6.58712 42.4493 4.71083 40.9946 3.93085C38.2841 2.4776 35.3427 1.4859 32.291 1.00382C28.2527 0.365898 24.123 0.636405 20.2024 1.79566C16.2818 2.95491 12.6691 4.97373 9.62706 7.7052C6.58505 10.4367 4.19035 13.812 2.61724 17.5856C1.04413 21.3592 0.332205 25.4361 0.53328 29.5195C0.734354 33.6029 1.84337 37.5901 3.7796 41.1909C5.71584 44.7917 8.43058 47.9155 11.7262 50.3349C14.2167 52.1632 16.9916 53.5545 19.9317 54.4568C21.5097 54.9411 23.0825 53.8626 23.3928 52.2413C23.703 50.6201 22.6301 49.0741 21.0674 48.5424C18.9953 47.8374 17.0373 46.8185 15.2636 45.5163C12.6843 43.6229 10.5596 41.1781 9.04426 38.36C7.52889 35.5419 6.66094 32.4213 6.50357 29.2255C6.3462 26.0297 6.90338 22.839 8.13455 19.8856C9.36572 16.9323 11.2399 14.2906 13.6207 12.1529C16.0015 10.0151 18.8289 8.43512 21.8973 7.52785C24.9657 6.62057 28.1978 6.40887 31.3583 6.90813C33.5317 7.25147 35.6337 7.92508 37.5929 8.90063C39.0706 9.63635 40.924 9.31023 41.8571 7.94867Z" stroke="#414141" stroke-width="20" mask="url(#path-2-inside-1_1_215)"/>
</svg>
